<svg width="32" height="32" viewBox="0 0 32 32" fill="none" xmlns="http://www.w3.org/2000/svg">
<path d="M8.02273 28V4.72727H17.2045C18.9697 4.72727 20.4735 5.06439 21.7159 5.73864C22.9583 6.4053 23.9053 7.33333 24.5568 8.52273C25.2159 9.70454 25.5455 11.0682 25.5455 12.6136C25.5455 14.1591 25.2121 15.5227 24.5455 16.7045C23.8788 17.8864 22.9129 18.8068 21.6477 19.4659C20.3902 20.125 18.8674 20.4545 17.0795 20.4545H11.2273V16.5114H16.2841C17.2311 16.5114 18.0114 16.3485 18.625 16.0227C19.2462 15.6894 19.7083 15.2311 20.0114 14.6477C20.322 14.0568 20.4773 13.3788 20.4773 12.6136C20.4773 11.8409 20.322 11.1667 20.0114 10.5909C19.7083 10.0076 19.2462 9.55682 18.625 9.23864C18.0038 8.91288 17.2159 8.75 16.2614 8.75H12.9432V28H8.02273Z" fill="#00FF19"/>
</svg>
